<?xml version="1.0" encoding="UTF-8"?>
<svg xmlns="http://www.w3.org/2000/svg" viewBox="0 0 128 128">
  <path fill="#B3B3B3" d="M63.81 1.026L4.277 21.88l9.363 77.637 50.17 27.457 50.738-27.828 9.363-77.637z"/>
  <path fill="#A6120D" d="M117.536 25.998L63.672 7.629v112.785l45.141-24.983z"/>
  <path fill="#DD1B16" d="M11.201 26.329l8.026 69.434 44.444 24.651V7.627z"/>
  <path fill="#F2F2F2" d="M78.499 67.67l-14.827 6.934H48.044l-7.363 18.56-13.663.254 36.638-81.508L78.499 67.67zm-1.434-3.491L63.77 37.858 52.864 63.726h10.807l13.394.453z"/>
  <path fill="#B3B3B3" d="M63.671 7.629v112.785l45.141-24.983 8.026-69.434zM63.671 7.629L11.201 26.329l8.026 69.434 44.444 24.651z"/>
</svg> 