<?xml version="1.0" encoding="UTF-8"?>
<svg xmlns="http://www.w3.org/2000/svg" viewBox="0 0 128 128">
  <path fill="#83CD29" d="M112.771 30.063l-8.647 13.183c-.854 1.307-2.77 1.65-4.22.77-3.5-2.1-7.44-3.6-11.7-4.5-1.7-.4-3.5.6-4 2.3-.5 1.7.6 3.5 2.3 4 3.3.8 6.3 2.1 9 3.8.8.5 1.1 1.4.8 2.2-.3.8-1.1 1.3-2 1.3-1.9 0-3.7-.4-5.4-1.1-3.4-1.4-6.5-3.3-9.2-5.7-1.1-.9-2.6-1.1-3.9-.5-1.3.6-2.1 1.9-2.1 3.3v16.5c0 1.4.8 2.7 2.1 3.3 1.3.6 2.8.4 3.9-.5 2.7-2.4 5.8-4.3 9.2-5.7 1.7-.7 3.5-1.1 5.4-1.1.9 0 1.7.5 2 1.3.3.8 0 1.7-.8 2.2-2.7 1.7-5.7 3-9 3.8-1.7.4-2.8 2.2-2.3 4 .4 1.7 2.2 2.8 4 2.3 4.3-.9 8.2-2.4 11.7-4.5 1.4-.9 3.4-.5 4.2.8l8.6 13.2c.9 1.3.5 3.1-.8 4-2.9 1.9-6.1 3.3-9.5 4.2-3.4.9-6.9 1.4-10.5 1.4-3.6 0-7.1-.5-10.5-1.4-3.4-.9-6.6-2.3-9.5-4.2-2.9-1.9-5.2-4.3-6.9-7.2-1.7-2.9-2.6-6.1-2.6-9.4 0-3.3.9-6.5 2.6-9.4 1.7-2.9 4-5.3 6.9-7.2 2.9-1.9 6.1-3.3 9.5-4.2 3.4-.9 6.9-1.4 10.5-1.4 3.6 0 7.1.5 10.5 1.4 3.4.9 6.6 2.3 9.5 4.2 1.3.9 1.7 2.7.8 4z"/>
  <path fill="#83CD29" d="M75.491 82.063c-1.4 0-2.5-1.1-2.5-2.5v-35c0-1.4 1.1-2.5 2.5-2.5s2.5 1.1 2.5 2.5v35c0 1.4-1.1 2.5-2.5 2.5z"/>
</svg> 