<?xml version="1.0" encoding="UTF-8"?>
<svg xmlns="http://www.w3.org/2000/svg" viewBox="0 0 128 128">
  <path fill="#0277BD" d="M63.391 1.988c-4.222.02-8.252.379-11.8 1.007-10.45 1.846-12.346 5.71-12.346 12.837v9.411h24.693v3.137H29.977c-7.176 0-13.46 5.313-13.46 13.47v27.41c0 8.156 6.284 13.47 13.46 13.47h8.225V76.561c0-8.832 7.683-16.018 16.495-16.018h24.761c8.813 0 16.495 7.186 16.495 16.018v27.41c0 8.832-7.683 16.018-16.495 16.018H63.391c-8.813 0-16.495-7.186-16.495-16.018v-9.411h-24.693v-3.137h24.693c7.176 0 13.46-5.313 13.46-13.47V29.422c0-8.156-6.284-13.47-13.46-13.47h-8.225v-9.411c0-7.126 1.896-10.991 12.346-12.837 3.548-.628 7.578-.987 11.8-1.007zM50.037 9.557c-2.655 0-5.811 2.16-5.811 5.811 0 3.651 3.156 5.811 5.811 5.811 2.655 0 5.811-2.16 5.811-5.811 0-3.651-3.156-5.811-5.811-5.811z"/>
  <path fill="#FFC107" d="M91.682 28.38v10.966c0 8.832-7.683 16.018-16.495 16.018H50.426c-8.813 0-16.495 7.186-16.495 16.018v27.41c0 8.832 7.683 16.018 16.495 16.018h24.761c8.813 0 16.495-7.186 16.495-16.018V76.561c0-8.832 7.683-16.018 16.495-16.018h8.225v-9.411c0-7.126-1.896-10.991-12.346-12.837-3.548-.628-7.578-.987-11.8-1.007-4.222-.02-8.252.379-11.8 1.007-10.45 1.846-12.346 5.71-12.346 12.837zM77.325 87.635c2.655 0 5.811 2.16 5.811 5.811 0 3.651-3.156 5.811-5.811 5.811-2.655 0-5.811-2.16-5.811-5.811 0-3.651 3.156-5.811 5.811-5.811z"/>
</svg> 